<svg viewBox="0 0 60.1 80.06" xmlns="http://www.w3.org/2000/svg" xmlns:xlink="http://www.w3.org/1999/xlink"><linearGradient id="hand-peace-gradient" gradientUnits="userSpaceOnUse" x2="60.1" y1="40.03" y2="40.03"><stop offset="0" stop-color="#0074e4"/><stop offset="1" stop-color="#5522fa"/></linearGradient><path d="m9 56.43c-17-17-.9-19.43 5-11 7 10 7 15-2 5-12.28-13.64.92-23.37 10-9 12 19-2.39 9.13-5 0-2-7 0-18 3-30s13-18 11 30c13-61 52-50 7 13 27-9 23.84 5.6 0 9-21 3-23.89-3.55-7-8 19-5 18 11 11 18-6.52 6.52-17.59 7.18-27 3-9-4-14-12-14-19" fill="none" stroke="url(#hand-peace-gradient)" stroke-linecap="round" stroke-linejoin="round" stroke-width="2.4"/></svg>